<svg width="261" height="18" viewBox="0 0 261 18" fill="none" xmlns="http://www.w3.org/2000/svg">
<path d="M0.6 17.112C0.44 17.112 0.296 17.056 0.168 16.944C0.0559998 16.816 -2.98023e-07 16.672 -2.98023e-07 16.512V0.911999C-2.98023e-07 0.735999 0.0559998 0.591999 0.168 0.479999C0.296 0.367999 0.44 0.311998 0.6 0.311998H3.144C3.544 0.311998 3.816 0.463998 3.96 0.767998L9.816 9.984V0.911999C9.816 0.735999 9.872 0.591999 9.984 0.479999C10.112 0.367999 10.256 0.311998 10.416 0.311998H13.296C13.472 0.311998 13.616 0.367999 13.728 0.479999C13.84 0.591999 13.896 0.735999 13.896 0.911999V16.488C13.896 16.664 13.84 16.816 13.728 16.944C13.616 17.056 13.472 17.112 13.296 17.112H10.728C10.376 17.112 10.112 16.96 9.936 16.656L4.08 7.776V16.512C4.08 16.672 4.024 16.816 3.912 16.944C3.8 17.056 3.656 17.112 3.48 17.112H0.6ZM16.29 17.112C16.162 17.112 16.042 17.064 15.93 16.968C15.834 16.856 15.786 16.736 15.786 16.608C15.786 16.512 15.794 16.44 15.81 16.392L21.45 0.983998C21.498 0.791999 21.602 0.631999 21.762 0.503999C21.922 0.375998 22.13 0.311998 22.386 0.311998H25.938C26.194 0.311998 26.402 0.375998 26.562 0.503999C26.722 0.631999 26.826 0.791999 26.874 0.983998L32.49 16.392L32.538 16.608C32.538 16.736 32.482 16.856 32.37 16.968C32.274 17.064 32.154 17.112 32.01 17.112H29.058C28.674 17.112 28.418 16.944 28.29 16.608L27.354 14.16H20.946L20.034 16.608C19.906 16.944 19.642 17.112 19.242 17.112H16.29ZM26.394 10.704L24.162 4.368L21.93 10.704H26.394ZM35.0297 17.112C34.8697 17.112 34.7257 17.056 34.5977 16.944C34.4857 16.816 34.4297 16.672 34.4297 16.512V0.911999C34.4297 0.735999 34.4857 0.591999 34.5977 0.479999C34.7257 0.367999 34.8697 0.311998 35.0297 0.311998H37.6217C38.0057 0.311998 38.2857 0.487998 38.4617 0.839999L42.6857 8.4L46.9097 0.839999C47.0857 0.487998 47.3657 0.311998 47.7497 0.311998H50.3177C50.4937 0.311998 50.6377 0.367999 50.7497 0.479999C50.8777 0.591999 50.9417 0.735999 50.9417 0.911999V16.512C50.9417 16.688 50.8777 16.832 50.7497 16.944C50.6377 17.056 50.4937 17.112 50.3177 17.112H47.4617C47.2857 17.112 47.1337 17.056 47.0057 16.944C46.8937 16.832 46.8377 16.688 46.8377 16.512V7.512L44.1497 12.528C43.9417 12.896 43.6617 13.08 43.3097 13.08H42.0617C41.8537 13.08 41.6857 13.032 41.5577 12.936C41.4297 12.84 41.3177 12.704 41.2217 12.528L38.5097 7.512V16.512C38.5097 16.672 38.4537 16.816 38.3417 16.944C38.2297 17.056 38.0857 17.112 37.9097 17.112H35.0297ZM53.3447 17.112C53.2167 17.112 53.0967 17.064 52.9847 16.968C52.8887 16.856 52.8407 16.736 52.8407 16.608C52.8407 16.512 52.8487 16.44 52.8647 16.392L58.5047 0.983998C58.5527 0.791999 58.6567 0.631999 58.8167 0.503999C58.9767 0.375998 59.1847 0.311998 59.4407 0.311998H62.9927C63.2487 0.311998 63.4567 0.375998 63.6167 0.503999C63.7767 0.631999 63.8807 0.791999 63.9287 0.983998L69.5447 16.392L69.5927 16.608C69.5927 16.736 69.5367 16.856 69.4247 16.968C69.3287 17.064 69.2087 17.112 69.0647 17.112H66.1127C65.7287 17.112 65.4727 16.944 65.3447 16.608L64.4087 14.16H58.0007L57.0887 16.608C56.9607 16.944 56.6967 17.112 56.2967 17.112H53.3447ZM63.4487 10.704L61.2167 4.368L58.9847 10.704H63.4487ZM72.0844 17.112C71.9244 17.112 71.7804 17.056 71.6524 16.944C71.5404 16.816 71.4844 16.672 71.4844 16.512V0.911999C71.4844 0.735999 71.5404 0.591999 71.6524 0.479999C71.7804 0.367999 71.9244 0.311998 72.0844 0.311998H74.6284C75.0284 0.311998 75.3004 0.463998 75.4444 0.767998L81.3004 9.984V0.911999C81.3004 0.735999 81.3564 0.591999 81.4684 0.479999C81.5964 0.367999 81.7404 0.311998 81.9004 0.311998H84.7804C84.9564 0.311998 85.1004 0.367999 85.2124 0.479999C85.3244 0.591999 85.3804 0.735999 85.3804 0.911999V16.488C85.3804 16.664 85.3244 16.816 85.2124 16.944C85.1004 17.056 84.9564 17.112 84.7804 17.112H82.2124C81.8604 17.112 81.5964 16.96 81.4204 16.656L75.5644 7.776V16.512C75.5644 16.672 75.5084 16.816 75.3964 16.944C75.2844 17.056 75.1404 17.112 74.9644 17.112H72.0844ZM95.6704 17.352C93.3664 17.352 91.5664 16.792 90.2704 15.672C88.9744 14.536 88.2864 12.928 88.2064 10.848C88.1904 10.384 88.1824 9.648 88.1824 8.64C88.1824 7.632 88.1904 6.896 88.2064 6.432C88.2864 4.4 88.9824 2.832 90.2944 1.728C91.6224 0.623999 93.4144 0.0719986 95.6704 0.0719986C97.1904 0.0719986 98.5104 0.319999 99.6304 0.815999C100.766 1.312 101.63 1.944 102.222 2.712C102.83 3.48 103.15 4.272 103.182 5.088C103.182 5.232 103.126 5.352 103.014 5.448C102.918 5.544 102.798 5.592 102.654 5.592H99.1504C98.9904 5.592 98.8624 5.568 98.7664 5.52C98.6704 5.472 98.5904 5.384 98.5264 5.256C98.3184 4.792 97.9904 4.392 97.5424 4.056C97.0944 3.704 96.4704 3.528 95.6704 3.528C93.7664 3.528 92.7664 4.536 92.6704 6.552C92.6544 7 92.6464 7.696 92.6464 8.64C92.6464 9.568 92.6544 10.264 92.6704 10.728C92.7664 12.84 93.7904 13.896 95.7424 13.896C96.6864 13.896 97.4384 13.656 97.9984 13.176C98.5744 12.68 98.8624 11.928 98.8624 10.92V10.464H96.6064C96.4304 10.464 96.2864 10.408 96.1744 10.296C96.0624 10.168 96.0064 10.016 96.0064 9.84V8.064C96.0064 7.888 96.0624 7.744 96.1744 7.632C96.2864 7.504 96.4304 7.44 96.6064 7.44H102.654C102.83 7.44 102.974 7.504 103.086 7.632C103.198 7.744 103.254 7.888 103.254 8.064V10.8C103.254 12.16 102.942 13.336 102.318 14.328C101.694 15.304 100.806 16.056 99.6544 16.584C98.5184 17.096 97.1904 17.352 95.6704 17.352ZM104.673 17.112C104.545 17.112 104.425 17.064 104.313 16.968C104.217 16.856 104.169 16.736 104.169 16.608C104.169 16.512 104.177 16.44 104.193 16.392L109.833 0.983998C109.881 0.791999 109.985 0.631999 110.145 0.503999C110.305 0.375998 110.513 0.311998 110.769 0.311998H114.321C114.577 0.311998 114.785 0.375998 114.945 0.503999C115.105 0.631999 115.209 0.791999 115.257 0.983998L120.873 16.392L120.921 16.608C120.921 16.736 120.865 16.856 120.753 16.968C120.657 17.064 120.537 17.112 120.393 17.112H117.441C117.057 17.112 116.801 16.944 116.673 16.608L115.737 14.16H109.329L108.417 16.608C108.289 16.944 108.025 17.112 107.625 17.112H104.673ZM114.777 10.704L112.545 4.368L110.313 10.704H114.777ZM123.412 17.112C123.252 17.112 123.108 17.056 122.98 16.944C122.868 16.816 122.812 16.672 122.812 16.512V0.911999C122.812 0.735999 122.868 0.591999 122.98 0.479999C123.108 0.367999 123.252 0.311998 123.412 0.311998H125.956C126.356 0.311998 126.628 0.463998 126.773 0.767998L132.629 9.984V0.911999C132.629 0.735999 132.685 0.591999 132.797 0.479999C132.925 0.367999 133.069 0.311998 133.228 0.311998H136.109C136.285 0.311998 136.429 0.367999 136.541 0.479999C136.653 0.591999 136.709 0.735999 136.709 0.911999V16.488C136.709 16.664 136.653 16.816 136.541 16.944C136.429 17.056 136.285 17.112 136.109 17.112H133.541C133.189 17.112 132.925 16.96 132.749 16.656L126.892 7.776V16.512C126.892 16.672 126.836 16.816 126.724 16.944C126.612 17.056 126.468 17.112 126.292 17.112H123.412ZM140.662 17.112C140.502 17.112 140.358 17.056 140.23 16.944C140.118 16.816 140.062 16.672 140.062 16.512V0.911999C140.062 0.735999 140.118 0.591999 140.23 0.479999C140.358 0.367999 140.502 0.311998 140.662 0.311998H143.831C144.006 0.311998 144.15 0.367999 144.262 0.479999C144.374 0.591999 144.43 0.735999 144.43 0.911999V13.488H151.702C151.879 13.488 152.023 13.552 152.135 13.68C152.247 13.792 152.303 13.936 152.303 14.112V16.512C152.303 16.672 152.247 16.816 152.135 16.944C152.023 17.056 151.879 17.112 151.702 17.112H140.662ZM154.983 17.112C154.823 17.112 154.679 17.056 154.551 16.944C154.439 16.816 154.383 16.672 154.383 16.512V0.911999C154.383 0.735999 154.439 0.591999 154.551 0.479999C154.679 0.367999 154.823 0.311998 154.983 0.311998H158.199C158.375 0.311998 158.519 0.367999 158.631 0.479999C158.759 0.591999 158.823 0.735999 158.823 0.911999V16.512C158.823 16.688 158.759 16.832 158.631 16.944C158.519 17.056 158.375 17.112 158.199 17.112H154.983ZM162.764 17.112C162.604 17.112 162.46 17.056 162.332 16.944C162.22 16.816 162.164 16.672 162.164 16.512V0.911999C162.164 0.735999 162.22 0.591999 162.332 0.479999C162.46 0.367999 162.604 0.311998 162.764 0.311998H165.788C165.964 0.311998 166.108 0.367999 166.22 0.479999C166.332 0.591999 166.388 0.735999 166.388 0.911999V6.24L170.828 0.767998C171.02 0.463998 171.332 0.311998 171.764 0.311998H175.22C175.364 0.311998 175.484 0.367999 175.58 0.479999C175.676 0.575999 175.724 0.687999 175.724 0.815999C175.724 0.927999 175.7 1.024 175.652 1.104L169.892 8.352L176.084 16.32C176.148 16.384 176.18 16.48 176.18 16.608C176.18 16.736 176.132 16.856 176.036 16.968C175.94 17.064 175.82 17.112 175.676 17.112H172.1C171.716 17.112 171.396 16.952 171.14 16.632L166.388 10.704V16.512C166.388 16.688 166.332 16.832 166.22 16.944C166.108 17.056 165.964 17.112 165.788 17.112H162.764ZM178.678 17.112C178.518 17.112 178.374 17.056 178.246 16.944C178.134 16.816 178.078 16.672 178.078 16.512V0.911999C178.078 0.735999 178.134 0.591999 178.246 0.479999C178.374 0.367999 178.518 0.311998 178.678 0.311998H181.846C182.022 0.311998 182.166 0.367999 182.278 0.479999C182.39 0.591999 182.446 0.735999 182.446 0.911999V13.488H189.718C189.894 13.488 190.038 13.552 190.15 13.68C190.262 13.792 190.318 13.936 190.318 14.112V16.512C190.318 16.672 190.262 16.816 190.15 16.944C190.038 17.056 189.894 17.112 189.718 17.112H178.678ZM191.438 17.112C191.31 17.112 191.19 17.064 191.078 16.968C190.982 16.856 190.934 16.736 190.934 16.608C190.934 16.512 190.942 16.44 190.958 16.392L196.598 0.983998C196.646 0.791999 196.75 0.631999 196.91 0.503999C197.07 0.375998 197.278 0.311998 197.534 0.311998H201.086C201.342 0.311998 201.55 0.375998 201.71 0.503999C201.87 0.631999 201.974 0.791999 202.022 0.983998L207.638 16.392L207.686 16.608C207.686 16.736 207.63 16.856 207.518 16.968C207.422 17.064 207.302 17.112 207.158 17.112H204.206C203.822 17.112 203.566 16.944 203.438 16.608L202.502 14.16H196.094L195.182 16.608C195.054 16.944 194.79 17.112 194.39 17.112H191.438ZM201.542 10.704L199.31 4.368L197.078 10.704H201.542ZM210.178 17.112C210.018 17.112 209.874 17.056 209.746 16.944C209.634 16.816 209.578 16.672 209.578 16.512V0.911999C209.578 0.735999 209.634 0.591999 209.746 0.479999C209.874 0.367999 210.018 0.311998 210.178 0.311998H216.706C218.802 0.311998 220.434 0.791998 221.602 1.752C222.786 2.696 223.378 4.04 223.378 5.784C223.378 6.904 223.114 7.856 222.586 8.64C222.058 9.424 221.33 10.024 220.402 10.44L223.69 16.344C223.738 16.44 223.762 16.528 223.762 16.608C223.762 16.736 223.706 16.856 223.594 16.968C223.498 17.064 223.386 17.112 223.258 17.112H220.066C219.602 17.112 219.274 16.896 219.082 16.464L216.346 11.184H213.898V16.512C213.898 16.688 213.834 16.832 213.706 16.944C213.594 17.056 213.45 17.112 213.274 17.112H210.178ZM216.658 7.776C217.394 7.776 217.954 7.6 218.338 7.248C218.722 6.88 218.914 6.376 218.914 5.736C218.914 5.096 218.722 4.592 218.338 4.224C217.97 3.84 217.41 3.648 216.658 3.648H213.898V7.776H216.658ZM231.209 17.112C231.033 17.112 230.881 17.056 230.753 16.944C230.641 16.832 230.585 16.688 230.585 16.512V14.808C230.585 14.328 230.785 13.936 231.185 13.632L233.681 11.184C235.137 10.064 236.241 9.192 236.993 8.568C237.745 7.944 238.313 7.376 238.697 6.864C239.081 6.352 239.273 5.864 239.273 5.4C239.273 4.136 238.649 3.504 237.401 3.504C236.745 3.504 236.241 3.704 235.889 4.104C235.537 4.488 235.305 4.976 235.193 5.568C235.097 5.936 234.825 6.12 234.377 6.12H231.377C231.233 6.12 231.113 6.072 231.017 5.976C230.921 5.88 230.873 5.76 230.873 5.616C230.905 4.592 231.185 3.656 231.713 2.808C232.257 1.944 233.017 1.264 233.993 0.767998C234.985 0.255998 236.121 -1.90735e-06 237.401 -1.90735e-06C238.745 -1.90735e-06 239.897 0.215998 240.857 0.647998C241.817 1.08 242.545 1.688 243.041 2.472C243.537 3.256 243.785 4.168 243.785 5.208C243.785 6.328 243.433 7.352 242.729 8.28C242.041 9.192 240.985 10.184 239.561 11.256L237.353 13.488H243.521C243.697 13.488 243.841 13.544 243.953 13.656C244.081 13.768 244.145 13.912 244.145 14.088V16.512C244.145 16.688 244.081 16.832 243.953 16.944C243.841 17.056 243.697 17.112 243.521 17.112H231.209ZM254.429 17.112C254.269 17.112 254.125 17.056 253.997 16.944C253.885 16.816 253.829 16.672 253.829 16.512V13.8H246.365C246.189 13.8 246.045 13.744 245.933 13.632C245.821 13.52 245.765 13.376 245.765 13.2V10.92C245.765 10.68 245.853 10.432 246.029 10.176L253.013 0.719999C253.237 0.447999 253.533 0.311998 253.901 0.311998H257.405C257.581 0.311998 257.725 0.367999 257.837 0.479999C257.949 0.591999 258.005 0.735999 258.005 0.911999V10.224H260.117C260.309 10.224 260.461 10.288 260.573 10.416C260.685 10.528 260.741 10.664 260.741 10.824V13.2C260.741 13.376 260.685 13.52 260.573 13.632C260.461 13.744 260.317 13.8 260.141 13.8H258.005V16.512C258.005 16.672 257.949 16.816 257.837 16.944C257.725 17.056 257.581 17.112 257.405 17.112H254.429ZM253.925 10.392V4.728L249.893 10.392H253.925Z" fill="#7296EE"/>
</svg>
